<?xml version="1.0" encoding="UTF-8" standalone="no"?>
<svg
   xmlns:dc="http://purl.org/dc/elements/1.1/"
   xmlns:cc="http://creativecommons.org/ns#"
   xmlns:rdf="http://www.w3.org/1999/02/22-rdf-syntax-ns#"
   xmlns:svg="http://www.w3.org/2000/svg"
   xmlns="http://www.w3.org/2000/svg"
   xmlns:sodipodi="http://sodipodi.sourceforge.net/DTD/sodipodi-0.dtd"
   xmlns:inkscape="http://www.inkscape.org/namespaces/inkscape"
   id="Layer_1"
   data-name="Layer 1"
   viewBox="0 0 512 512"
   version="1.1"
   sodipodi:docname="miniLogo.svg"
   inkscape:version="0.92.2 5c3e80d, 2017-08-06">
  <metadata
     id="metadata16">
    <rdf:RDF>
      <cc:Work
         rdf:about="">
        <dc:format>image/svg+xml</dc:format>
        <dc:type
           rdf:resource="http://purl.org/dc/dcmitype/StillImage" />
      </cc:Work>
    </rdf:RDF>
  </metadata>
  <sodipodi:namedview
     pagecolor="#ffffff"
     bordercolor="#666666"
     borderopacity="1"
     objecttolerance="10"
     gridtolerance="10"
     guidetolerance="10"
     inkscape:pageopacity="0"
     inkscape:pageshadow="2"
     inkscape:window-width="904"
     inkscape:window-height="674"
     id="namedview14"
     showgrid="false"
     inkscape:zoom="0.5"
     inkscape:cx="362.8178"
     inkscape:cy="342.31994"
     inkscape:window-x="0"
     inkscape:window-y="0"
     inkscape:window-maximized="0"
     inkscape:current-layer="layer1" />
  <defs
     id="defs4">
    <inkscape:perspective
       sodipodi:type="inkscape:persp3d"
       inkscape:vp_x="0 : 256 : 1"
       inkscape:vp_y="0 : 1000 : 0"
       inkscape:vp_z="512 : 256 : 1"
       inkscape:persp3d-origin="256 : 170.66667 : 1"
       id="perspective21" />
    <style
       id="style2">.cls-1{fill:none;stroke:#1a1a1a;stroke-miterlimit:10;stroke-width:10px;}</style>
  </defs>
  <title
     id="title6">miniLogo-01</title>
  <g
     inkscape:groupmode="layer"
     id="layer1"
     inkscape:label="Layer 1"
     style="display:none">
    <circle
       id="path18"
       cx="256"
       cy="256"
       style="display:inline;fill:none;stroke:#000009;stroke-width:16.87911987;stroke-miterlimit:4;stroke-dasharray:none;stroke-opacity:1"
       r="247.56044" />
  </g>
  <g
     inkscape:groupmode="layer"
     id="layer2"
     inkscape:label="Layer 2"
     style="display:inline">
    <g
       id="logoMini"
       style="stroke:#000000;stroke-opacity:1"
       transform="translate(-1.2500307,2.3500033)">
      <path
         class="cls-1"
         d="m 402.62,247.57 a 3.94,3.94 0 0 1 0.5,0.5 4.89,4.89 0 0 1 0.75,1.14 5.07,5.07 0 0 1 0.49,2.2 5,5 0 0 1 -4.88,5 H 287.56 a 30.26,30.26 0 0 1 -15.12,-4.25 l -6.17,-3.67 -2.4,-1.27 -25.8,-15.32 -9.76,-5.79 -3,-1.78 -10.63,-6.33 a 52,52 0 0 0 -53.26,0 l -10.66,6.32 -14.76,8.81 -19.12,11.36 -5,3.08 a 4.64,4.64 0 0 0 -0.49,0.5 4.89,4.89 0 0 0 -0.75,1.14 5.07,5.07 0 0 0 -0.5,2.2 5,5 0 0 0 4.89,5 H 227 a 30.26,30.26 0 0 0 15.13,-4.25 l 6.17,-3.67 2.4,-1.27 25.8,-15.32 9.76,-5.79 3,-1.78 10.59,-6.33 a 52,52 0 0 1 53.26,0 l 10.65,6.32 14.78,8.77 19.12,11.36 z"
         id="path8"
         style="fill:none;stroke:#000000;stroke-width:10px;stroke-miterlimit:10;stroke-opacity:1"
         inkscape:connector-curvature="0" />
      <path
         class="cls-1"
         d="m 110.16,250.28 v 41.35 a 5,5 0 0 0 4.89,5 H 227 a 30.06,30.06 0 0 0 15.13,-4.25 l 6.17,-3.66 2.4,-1.27 4,-1.54 a 5.83,5.83 0 0 1 0.95,-0.37 6.07,6.07 0 0 1 4.08,0.25 l 4.22,1.66 2.4,1.27 6.17,3.66 a 30.05,30.05 0 0 0 15.12,4.25 h 111.84 a 5,5 0 0 0 4.88,-5 v -40.2"
         id="path10"
         style="fill:none;stroke:#000000;stroke-width:10px;stroke-miterlimit:10;stroke-opacity:1"
         inkscape:connector-curvature="0" />
    </g>
  </g>
</svg>
