<?xml version="1.0" standalone="no"?>
<!DOCTYPE svg PUBLIC "-//W3C//DTD SVG 20010904//EN"
 "http://www.w3.org/TR/2001/REC-SVG-20010904/DTD/svg10.dtd">
<svg version="1.0" xmlns="http://www.w3.org/2000/svg"
 width="512.000000pt" height="512.000000pt" viewBox="0 0 512.000000 512.000000"
 preserveAspectRatio="xMidYMid meet">
<metadata>
Created by potrace 1.14, written by Peter Selinger 2001-2017
</metadata>
<g transform="translate(0.000000,512.000000) scale(0.100000,-0.100000)"
fill="#000000" stroke="none">
<path d="M799 5028 c-2 -6 -9 -254 -24 -918 -2 -107 -7 -294 -10 -415 -3 -121
-8 -299 -10 -395 -14 -546 -16 -649 -31 -1095 -10 -305 -11 -1170 -1 -1285 14
-169 31 -277 72 -465 19 -86 111 -308 146 -351 9 -11 15 -11 109 11 63 15 288
67 300 70 8 2 44 10 80 18 36 8 119 27 185 42 66 15 153 35 193 44 l73 16 -41
55 c-46 62 -121 206 -151 289 -43 122 -87 310 -104 441 -3 25 -7 61 -10 80
-17 132 -25 274 -26 470 -1 146 10 542 16 548 1 2 10 -18 19 -44 82 -240 392
-441 755 -488 105 -13 306 -14 376 -2 299 53 568 258 700 534 l39 82 19 -38
c10 -20 32 -68 49 -107 71 -162 208 -425 261 -505 l33 -49 99 45 c55 25 114
51 130 58 17 8 50 23 75 34 177 77 225 99 298 133 46 21 86 39 89 39 2 0 25
10 51 21 26 12 59 27 74 33 32 14 36 4 -73 167 -77 114 -181 300 -212 377 -9
23 -25 60 -36 84 -36 79 -99 288 -116 383 -2 17 -7 41 -10 54 -2 14 -9 61 -15
105 -6 45 -13 96 -15 114 -24 164 -24 881 0 1232 16 238 22 313 30 390 2 25 7
72 11 105 3 33 8 63 10 66 7 12 -52 14 -506 14 l-454 0 -2 -30 c-3 -34 -12
-154 -19 -235 -10 -109 -23 -325 -31 -480 -9 -194 -4 -588 10 -717 3 -26 8
-79 13 -118 11 -108 6 -159 -27 -258 -55 -163 -158 -337 -258 -436 -181 -176
-448 -209 -694 -85 -217 109 -474 392 -554 610 -27 75 -29 87 -27 224 1 136 6
292 18 595 3 72 7 193 10 270 5 158 12 338 21 533 l5 132 -455 0 c-251 0 -456
-1 -457 -2z"/>
</g>
</svg>
