<?xml version="1.0" standalone="no"?>
<!DOCTYPE svg PUBLIC "-//W3C//DTD SVG 20010904//EN"
 "http://www.w3.org/TR/2001/REC-SVG-20010904/DTD/svg10.dtd">
<svg version="1.0" xmlns="http://www.w3.org/2000/svg"
 width="300.000000pt" height="300.000000pt" viewBox="0 0 300.000000 300.000000"
 preserveAspectRatio="xMidYMid meet">
<metadata>
Created by potrace 1.10, written by Peter Selinger 2001-2011
</metadata>
<g transform="translate(0.000000,300.000000) scale(0.100000,-0.100000)"
fill="#000000" stroke="none">
<path d="M2233 2033 c9 -2 25 -2 35 0 9 3 1 5 -18 5 -19 0 -27 -2 -17 -5z"/>
<path d="M2410 2030 c30 -5 -6 -7 -105 -7 -163 1 -176 -2 -229 -57 -37 -38
-77 -86 -72 -86 1 0 -14 -18 -34 -40 -20 -21 -43 -52 -51 -67 -8 -15 -22 -35
-31 -44 -16 -17 -18 -16 -43 7 -14 13 -22 24 -18 24 4 1 -2 9 -14 19 -12 10
-19 21 -16 25 4 3 1 6 -5 6 -7 0 -12 5 -12 11 0 6 -9 23 -20 37 -80 105 -112
142 -120 137 -4 -3 -10 0 -12 5 -8 24 -108 29 -630 30 -471 0 -548 -2 -561
-14 -11 -12 -15 -45 -16 -142 -3 -175 -3 -174 134 -174 l105 0 0 -332 c1 -270
3 -337 15 -352 12 -16 33 -19 160 -23 157 -5 195 -1 195 22 0 8 5 15 10 15 6
0 10 118 10 334 l0 335 86 3 c47 2 88 0 90 -3 2 -4 4 -154 4 -335 1 -181 4
-334 8 -339 19 -27 57 -35 165 -35 77 0 117 4 126 13 11 10 12 9 6 -2 -6 -10
-4 -12 6 -6 50 29 49 24 49 266 0 141 4 230 10 234 6 3 10 1 10 -6 0 -22 131
-188 164 -209 47 -28 155 -28 202 1 35 21 94 89 94 108 0 6 4 11 9 11 5 0 22
20 38 45 15 24 33 44 38 45 6 0 10 -84 10 -234 0 -129 3 -232 8 -229 4 2 7 -2
7 -10 0 -11 17 -17 58 -21 76 -9 242 -4 242 7 0 4 5 5 10 2 6 -3 10 1 10 10 0
9 4 13 10 10 6 -4 10 163 10 483 -1 563 7 521 -97 527 -55 2 -56 2 -13 -5z
m-787 -53 c25 -16 116 -132 196 -249 17 -27 40 -48 49 -48 9 0 40 31 67 67
103 138 166 213 192 230 22 15 56 19 195 23 l168 5 0 -490 0 -490 -147 0 -148
0 -5 283 -5 284 -53 -79 c-124 -187 -176 -233 -263 -233 -77 0 -113 33 -247
229 l-57 83 -5 -283 -5 -284 -148 0 -147 0 0 353 0 352 -120 0 -120 0 0 -352
0 -353 -165 0 -165 0 0 353 0 352 -120 0 -120 0 0 133 c0 74 2 136 4 138 2 2
260 2 573 -1 526 -5 571 -6 596 -23z"/>
</g>
</svg>
