{
  "accessors": [
    {
      "bufferView": 2,
      "componentType": 5126,
      "count": 65534,
      "max": [
        4.3575630187988281,
        6.7339916229248047,
        7.5103368759155273
      ],
      "min": [
        -4.2736234664916992,
        -6.5805001258850098,
        -5.8078293800354004
      ],
      "type": "VEC3"
    },
    {
      "bufferView": 2,
      "byteOffset": 786408,
      "componentType": 5126,
      "count": 65534,
      "max": [
        1,
        0.99948370456695557,
        1
      ],
      "min": [
        -1,
        -0.99715101718902588,
        -1
      ],
      "type": "VEC3"
    },
    {
      "bufferView": 1,
      "componentType": 5126,
      "count": 65534,
      "max": [
        0.99990731477737427,
        0.99989748001098633
      ],
      "min": [
        9.2057605797890574e-05,
        0.00015783011622261256
      ],
      "type": "VEC2"
    },
    {
      "bufferView": 0,
      "componentType": 5125,
      "count": 96447,
      "max": [
        65533
      ],
      "min": [
        0
      ],
      "type": "SCALAR"
    },
    {
      "bufferView": 2,
      "byteOffset": 1572816,
      "componentType": 5126,
      "count": 65532,
      "max": [
        4.2950811386108398,
        6.7339920997619629,
        7.5103368759155273
      ],
      "min": [
        -4.3575630187988281,
        -6.5805001258850098,
        -5.8078293800354004
      ],
      "type": "VEC3"
    },
    {
      "bufferView": 2,
      "byteOffset": 2359200,
      "componentType": 5126,
      "count": 65532,
      "max": [
        1,
        1,
        0.99959176778793335
      ],
      "min": [
        -1,
        -1,
        -0.9992450475692749
      ],
      "type": "VEC3"
    },
    {
      "bufferView": 1,
      "byteOffset": 524272,
      "componentType": 5126,
      "count": 65532,
      "max": [
        0.99997025728225708,
        0.99994921684265137
      ],
      "min": [
        0.00037220912054181099,
        6.3484643760602921e-05
      ],
      "type": "VEC2"
    },
    {
      "bufferView": 0,
      "byteOffset": 385788,
      "componentType": 5125,
      "count": 98298,
      "max": [
        65531
      ],
      "min": [
        0
      ],
      "type": "SCALAR"
    },
    {
      "bufferView": 2,
      "byteOffset": 3145584,
      "componentType": 5126,
      "count": 65532,
      "max": [
        4.2950811386108398,
        6.510709285736084,
        6.7934370040893555
      ],
      "min": [
        -4.2950811386108398,
        -6.5125622749328613,
        -5.7635064125061035
      ],
      "type": "VEC3"
    },
    {
      "bufferView": 2,
      "byteOffset": 3931968,
      "componentType": 5126,
      "count": 65532,
      "max": [
        1,
        0.99974304437637329,
        1
      ],
      "min": [
        -1,
        -1,
        -1
      ],
      "type": "VEC3"
    },
    {
      "bufferView": 1,
      "byteOffset": 1048528,
      "componentType": 5126,
      "count": 65532,
      "max": [
        0.99996381998062134,
        0.99993628263473511
      ],
      "min": [
        4.4168726162752137e-05,
        4.7913537855492905e-05
      ],
      "type": "VEC2"
    },
    {
      "bufferView": 0,
      "byteOffset": 778980,
      "componentType": 5125,
      "count": 130401,
      "max": [
        65531
      ],
      "min": [
        0
      ],
      "type": "SCALAR"
    },
    {
      "bufferView": 2,
      "byteOffset": 4718352,
      "componentType": 5126,
      "count": 26256,
      "max": [
        4.2907857894897461,
        6.3988542556762695,
        6.7934370040893555
      ],
      "min": [
        -4.2948422431945801,
        -6.5125622749328613,
        -5.6175022125244141
      ],
      "type": "VEC3"
    },
    {
      "bufferView": 2,
      "byteOffset": 5033424,
      "componentType": 5126,
      "count": 26256,
      "max": [
        1,
        0.99974298477172852,
        0.99917685985565186
      ],
      "min": [
        -1,
        -0.99974298477172852,
        -0.9976428747177124
      ],
      "type": "VEC3"
    },
    {
      "bufferView": 1,
      "byteOffset": 1572784,
      "componentType": 5126,
      "count": 26256,
      "max": [
        0.99993717670440674,
        0.99981623888015747
      ],
      "min": [
        0.00018067608471028507,
        7.9354969784617424e-05
      ],
      "type": "VEC2"
    },
    {
      "bufferView": 0,
      "byteOffset": 1300584,
      "componentType": 5125,
      "count": 54960,
      "max": [
        26255
      ],
      "min": [
        0
      ],
      "type": "SCALAR"
    }
  ],
  "asset": {
    "extras": {
      "author": "atomicwest (https://sketchfab.com/atomicwest)",
      "license": "CC-BY-4.0 (http://creativecommons.org/licenses/by/4.0/)",
      "source": "https://sketchfab.com/3d-models/black-panther-helmet-cdee4107d59542268641b2949efc5dc3",
      "title": "Black Panther helmet"
    },
    "generator": "Sketchfab-8.89.2",
    "version": "2.0"
  },
  "bufferViews": [
    {
      "buffer": 0,
      "byteLength": 1520424,
      "byteOffset": 0,
      "name": "floatBufferViews",
      "target": 34963
    },
    {
      "buffer": 0,
      "byteLength": 1782832,
      "byteOffset": 1520424,
      "byteStride": 8,
      "name": "floatBufferViews",
      "target": 34962
    },
    {
      "buffer": 0,
      "byteLength": 5348496,
      "byteOffset": 3303256,
      "byteStride": 12,
      "name": "floatBufferViews",
      "target": 34962
    }
  ],
  "buffers": [
    {
      "byteLength": 8651752,
      "uri": "scene.bin"
    }
  ],
  "images": [
    {
      "uri": "textures/blackpantherhelmet_baseColor.png"
    }
  ],
  "materials": [
    {
      "doubleSided": true,
      "emissiveFactor": [
        0,
        0,
        0
      ],
      "name": "blackpantherhelmet",
      "pbrMetallicRoughness": {
        "baseColorFactor": [
          1,
          1,
          1,
          1
        ],
        "baseColorTexture": {
          "index": 0,
          "texCoord": 0
        },
        "metallicFactor": 0.58548940859628951,
        "roughnessFactor": 0.14520008892041714
      }
    }
  ],
  "meshes": [
    {
      "name": "bp-helmet_blackpantherhelmet_0",
      "primitives": [
        {
          "attributes": {
            "NORMAL": 1,
            "POSITION": 0,
            "TEXCOORD_0": 2
          },
          "indices": 3,
          "material": 0,
          "mode": 4
        }
      ]
    },
    {
      "name": "bp-helmet_blackpantherhelmet_0",
      "primitives": [
        {
          "attributes": {
            "NORMAL": 5,
            "POSITION": 4,
            "TEXCOORD_0": 6
          },
          "indices": 7,
          "material": 0,
          "mode": 4
        }
      ]
    },
    {
      "name": "bp-helmet_blackpantherhelmet_0",
      "primitives": [
        {
          "attributes": {
            "NORMAL": 9,
            "POSITION": 8,
            "TEXCOORD_0": 10
          },
          "indices": 11,
          "material": 0,
          "mode": 4
        }
      ]
    },
    {
      "name": "bp-helmet_blackpantherhelmet_0",
      "primitives": [
        {
          "attributes": {
            "NORMAL": 13,
            "POSITION": 12,
            "TEXCOORD_0": 14
          },
          "indices": 15,
          "material": 0,
          "mode": 4
        }
      ]
    }
  ],
  "nodes": [
    {
      "children": [
        1
      ],
      "name": "RootNode (gltf orientation matrix)",
      "rotation": [
        -0.70710678118654746,
        -0,
        -0,
        0.70710678118654757
      ]
    },
    {
      "children": [
        2
      ],
      "matrix": [
        -0.610301673412323,
        0.79216909408569336,
        0,
        0,
        -0.79216909408569336,
        -0.610301673412323,
        0,
        0,
        0,
        0,
        1,
        0,
        -12.626312255859375,
        -68.439559936523438,
        1.0572837709332816e-05,
        1
      ],
      "name": "RootNode (model correction matrix)"
    },
    {
      "children": [
        3
      ],
      "matrix": [
        1,
        0,
        0,
        0,
        0,
        0,
        1,
        0,
        0,
        -1,
        0,
        0,
        0,
        0,
        0,
        1
      ],
      "name": "blackpanther-helmet_lowpoly_1mat_smooth.fbx"
    },
    {
      "children": [
        4
      ],
      "name": "RootNode"
    },
    {
      "children": [
        5,
        6,
        7,
        8
      ],
      "matrix": [
        113.47796630859375,
        0,
        0,
        0,
        0,
        99.999999999999901,
        4.371138828673792e-06,
        0,
        0,
        -4.371138828673792e-06,
        99.999999999999901,
        0,
        0,
        -65.080665588378906,
        0,
        1
      ],
      "name": "bp-helmet"
    },
    {
      "mesh": 0,
      "name": "bp-helmet_blackpantherhelmet_0"
    },
    {
      "mesh": 1,
      "name": "bp-helmet_blackpantherhelmet_0"
    },
    {
      "mesh": 2,
      "name": "bp-helmet_blackpantherhelmet_0"
    },
    {
      "mesh": 3,
      "name": "bp-helmet_blackpantherhelmet_0"
    }
  ],
  "samplers": [
    {
      "magFilter": 9729,
      "minFilter": 9987,
      "wrapS": 10497,
      "wrapT": 10497
    }
  ],
  "scene": 0,
  "scenes": [
    {
      "name": "OSG_Scene",
      "nodes": [
        0
      ]
    }
  ],
  "textures": [
    {
      "sampler": 0,
      "source": 0
    }
  ]
}

